<svg xmlns="http://www.w3.org/2000/svg" version="1.1" xmlns:xlink="http://www.w3.org/1999/xlink" xmlns:svgjs="http://svgjs.com/svgjs" width="1950" height="1080" preserveAspectRatio="none" viewBox="0 0 1950 1080"><g mask="url(&quot;#SvgjsMask1020&quot;)" fill="none"><rect width="1950" height="1080" x="0" y="0" fill="rgba(54, 54, 54, 1)"></rect><path d="M0,651.087C115.894,620.893,187.252,509.75,297.437,462.821C440.771,401.773,648.981,464.962,737.694,336.894C822.665,214.229,725.588,45.293,686.398,-98.689C651.529,-226.795,614.096,-356.62,522.712,-452.932C433.516,-546.938,311.615,-603.426,184.344,-627.819C64.43,-650.802,-54.712,-619.7,-172.095,-586.101C-290.228,-552.288,-412.486,-519.662,-498.86,-432.265C-588.122,-341.946,-632.858,-219.086,-657.858,-94.586C-683.932,35.261,-685.592,168.468,-644.789,294.465C-600.625,430.843,-542.509,579.588,-417.066,648.968C-292.895,717.645,-137.314,686.861,0,651.087" fill="#2b2b2b"></path><path d="M1950 1794.5520000000001C2090.761 1783.356 2224.942 1763.289 2357.013 1713.324 2519.326 1651.9180000000001 2706.457 1613.136 2805.749 1470.808 2909.6440000000002 1321.883 2920.635 1123.89 2893.475 944.3489999999999 2866.428 765.558 2800.549 576.069 2654.308 469.71400000000006 2514.014 367.68399999999997 2321.537 419.203 2148.841 402.80999999999995 2012.062 389.826 1880.129 356.154 1745.472 383.442 1601.838 412.54999999999995 1450.9270000000001 453.63599999999997 1354.3020000000001 563.825 1257.488 674.23 1229.146 829.091 1225.946 975.897 1222.982 1111.884 1293.267 1231.157 1336.9470000000001 1359.972 1386.299 1505.5140000000001 1373.76 1692.682 1499.136 1781.558 1624.329 1870.3049999999998 1797.025 1806.719 1950 1794.5520000000001" fill="#414141"></path></g><defs><mask id="SvgjsMask1020"><rect width="1950" height="1080" fill="#ffffff"></rect></mask></defs></svg>