<?xml version="1.0" ?><svg enable-background="new 0 0 24 24" id="Layer_1" version="1.1" viewBox="0 0 24 24" xml:space="preserve" xmlns="http://www.w3.org/2000/svg" xmlns:xlink="http://www.w3.org/1999/xlink"><g><path d="M21.5800781,13.946228C21.8545532,13.3170166,22,12.664856,22,12   c0-2.4695435-1.8041992-4.5131836-4.1610718-4.9151611C18.5465698,6.4439087,19,5.5275269,19,4.5C19,2.0761719,16.5253906,0,14.5,0   C14.2236328,0,14,0.2236328,14,0.5C14,1.8789063,12.6542969,3,11,3h-1C7.9165039,3,6.2203979,4.8069458,6.0361938,7.0974731   C3.739502,7.5484009,2,9.5731812,2,12c0,0.664856,0.1454468,1.3170166,0.4199219,1.946228   C0.9609375,14.9363403,0,16.6081543,0,18.5C0,21.5322266,2.4677734,24,5.5,24h13c3.0322266,0,5.5-2.4677734,5.5-5.5   C24,16.6081543,23.0390625,14.9363403,21.5800781,13.946228z" fill="#303C42"/><path d="M18.5,23h-13C3.0185547,23,1,20.9814453,1,18.5c0-1.6820068,0.9383545-3.1338501,2.3087769-3.9060059   c0.0015259-0.0007935,0.0032349-0.0004272,0.0046997-0.0012207c0.00177-0.0009766,0.0026855-0.0028076,0.0044556-0.0037842   C3.9671631,14.2251587,4.7042847,14,5.5,14C5.7763672,14,6,13.7763672,6,13.5S5.7763672,13,5.5,13   c-0.7836914,0-1.5281372,0.1675415-2.2035522,0.4643555C3.1003418,12.9874878,3,12.4969482,3,12c0-2.2060547,1.7939453-4,4-4   c0.2763672,0,0.5-0.2236328,0.5-0.5c0-0.2612305-0.2021484-0.46875-0.4573975-0.491394C7.2496338,5.3127441,8.4899902,4,10,4h1   c1.9881592,0,3.628479-1.2789917,3.9356689-2.9433594C16.286499,1.3270264,18,2.7606201,18,4.5C18,5.8789063,16.8789063,7,15.5,7   h-1C14.2236328,7,14,7.2236328,14,7.5S14.2236328,8,14.5,8H17c2.2060547,0,4,1.7939453,4,4   c0,0.4969482-0.1003418,0.9874878-0.2964478,1.4643555C20.0281372,13.1675415,19.2836914,13,18.5,13   c-0.2763672,0-0.5,0.2236328-0.5,0.5s0.2236328,0.5,0.5,0.5c0.7957153,0,1.5328369,0.2251587,2.1820679,0.5889893   c0.00177,0.0009766,0.0026855,0.0028076,0.0044556,0.0037842c0.0014648,0.0007935,0.0031738,0.0004272,0.0046997,0.0012207   C22.0616455,15.3661499,23,16.8179932,23,18.5C23,20.9814453,20.9814453,23,18.5,23z" fill="#BF6B29"/><path d="M10,4.9433594h1c1.9881592,0,3.628479-1.2789917,3.9356689-2.9433594   c1.2352295,0.2472534,2.7578125,1.4708252,3.012085,3.0077515C17.9817505,4.843689,18,4.6740112,18,4.5   c0-1.7393799-1.713501-3.1729736-3.0643311-3.4433594C14.628479,2.7210083,12.9881592,4,11,4h-1   C8.4899902,4,7.2496338,5.3127441,7.0426025,7.008606c0.0807495,0.0071411,0.1522827,0.0379028,0.2176514,0.0778809   C7.7144775,5.8330078,8.7614136,4.9433594,10,4.9433594z" fill="#FFFFFF" opacity="0.2"/><path d="M6.5,12c0.1601563,0,0.3183594-0.0771484,0.4150391-0.2207031C7.0253906,11.6142578,7.5332031,11,8,11   c0.453125,0,0.9482422,0.578125,1.0859375,0.7802734c0.1552734,0.2285156,0.4667969,0.2880859,0.6933594,0.1328125   c0.2285156-0.1542969,0.2890625-0.4628906,0.1357422-0.6923828C9.8310547,11.0957031,9.0634766,10,8,10   s-1.8310547,1.0957031-1.9150391,1.2207031c-0.1542969,0.2294922-0.0927734,0.5400391,0.1357422,0.6943359   C6.3066406,11.9726563,6.4033203,12,6.5,12z" fill="#303C42"/><path d="M16,10c-1.0634766,0-1.8310547,1.0957031-1.9150391,1.2207031   c-0.1542969,0.2294922-0.0927734,0.5400391,0.1357422,0.6943359C14.3066406,11.9726563,14.4033203,12,14.5,12   c0.1601563,0,0.3183594-0.0771484,0.4150391-0.2207031C15.0253906,11.6142578,15.5332031,11,16,11   c0.453125,0,0.9482422,0.578125,1.0859375,0.7802734c0.1552734,0.2285156,0.4677734,0.2880859,0.6933594,0.1328125   c0.2285156-0.1542969,0.2890625-0.4628906,0.1357422-0.6923828C17.8310547,11.0957031,17.0634766,10,16,10z" fill="#303C42"/><path d="M20.9530029,14.7642822c0.4522095,0.6954346,0.7216797,1.5184937,0.7216797,2.4104004   c0,2.4814453-2.0185547,4.5-4.5,4.5h-13c-0.9018555,0-1.7387085-0.272522-2.4436035-0.7310791   C2.5343018,22.1782227,3.9204102,23,5.5,23h13c2.4814453,0,4.5-2.0185547,4.5-4.5   C23,16.9296875,22.1767578,15.567627,20.9530029,14.7642822z" fill="#010101" opacity="0.1"/><path d="M17.5,16.0078125L6.5,16c-0.1503906,0-0.2919922,0.0673828-0.3876953,0.1835938   c-0.0947266,0.1171875-0.1328125,0.2695313-0.1025391,0.4169922C6.6630859,19.7792969,9.1269531,22,12.0009766,22   c2.8710938,0,5.3339844-2.2167969,5.9882813-5.390625c0.03125-0.1474609-0.0068359-0.3007813-0.1015625-0.4169922   C17.7929688,16.0751953,17.6503906,16.0078125,17.5,16.0078125z" fill="#303C42"/><path d="M12.0009766,21c-2.2128906,0-4.140625-1.6162109-4.859375-4l9.7167969,0.0078125   C16.1376953,19.3867188,14.2109375,21,12.0009766,21z" fill="#B72025"/><path d="M8.8969717,19.5719738c-0.4095564-0.651638,0.0987272-1.5005436,0.8683805-1.4999256   l6.6491375,0.0053444c0.1729736-0.3375244,0.3287354-0.6894531,0.4439087-1.0695801L7.1416016,17   c0.3877563,1.2860718,1.1345215,2.3361816,2.0809937,3.0421753C9.1082182,19.8916416,8.9993696,19.7348976,8.8969717,19.5719738z" fill="#010101" opacity="0.1"/><linearGradient gradientUnits="userSpaceOnUse" id="SVGID_1_" x1="2.9661691" x2="24.4167938" y1="8.8218479" y2="18.8244381"><stop offset="0" style="stop-color:#FFFFFF;stop-opacity:0.2"/><stop offset="1" style="stop-color:#FFFFFF;stop-opacity:0"/></linearGradient><path d="M21.5800781,13.946228C21.8545532,13.3170166,22,12.664856,22,12   c0-2.4695435-1.8041992-4.5131836-4.1610718-4.9151611C18.5465698,6.4439087,19,5.5275269,19,4.5C19,2.0761719,16.5253906,0,14.5,0   C14.2236328,0,14,0.2236328,14,0.5C14,1.8789063,12.6542969,3,11,3h-1C7.9165039,3,6.2203979,4.8069458,6.0361938,7.0974731   C3.739502,7.5484009,2,9.5731812,2,12c0,0.664856,0.1454468,1.3170166,0.4199219,1.946228   C0.9609375,14.9363403,0,16.6081543,0,18.5C0,21.5322266,2.4677734,24,5.5,24h13c3.0322266,0,5.5-2.4677734,5.5-5.5   C24,16.6081543,23.0390625,14.9363403,21.5800781,13.946228z" fill="url(#SVGID_1_)"/></g><g/><g/><g/><g/><g/><g/><g/><g/><g/><g/><g/><g/><g/><g/><g/></svg>